<?xml version="1.0" standalone="no"?>
<svg xmlns="http://www.w3.org/2000/svg" viewBox="0 0 118.8 36" width="118.8" height="36"><g fill="#ff8686" color="#ff8686" transform="translate(0 3.9999999999999982) scale(0.2800001)"><svg width="100.0" height="100.0" x="0.0" y="0.0" viewBox="0 0 100 100"><path fill="currentColor" d="M67,55.8c0.3-0.5,0.5-1,0.8-1.7c0.1-0.3,0-0.7-0.2-0.9c-0.3-0.2-0.6-0.2-0.9-0.1c-0.4,0.3-0.7,0.3-0.8,0.3  c-0.9,0-1.1-3.7-1.3-6.2c-0.2-3.3-0.4-7-1.7-9.6c-0.1-0.3-0.4-0.5-0.7-0.4c-0.3,0-0.6,0.2-0.7,0.5c-0.5,1.5-1.2,2.4-1.9,3.1  c-1,1.2-1.9,2.3-0.7,5c0.3,0.7,0.5,2.9-0.2,3.9c-0.2,0.4-0.5,0.4-0.7,0.4c0,0-0.1,0-0.1,0c-0.3,0-0.6-0.1-0.9-0.1  c-1.1,0-1.9,0.3-2.4,0.7l0-6.4c0,0,0,0,0,0l0-11.2c0-2.8-5.3-4-8.4-4.5c0.6-2.6-1.3-5.6-2.9-8.1c-0.7-1.2-1.5-2.3-1.6-2.9  c-0.4-2.3,0.1-3.6,0.6-4.8c0.8-1.9,1.5-3.6-1.1-7.6C41.1,5,40.7,4.9,40.4,5c-0.3,0.1-0.5,0.5-0.5,0.8c0.3,2.4,0,2.7-1,3.7  c-0.4,0.4-1,1-1.6,1.8c-0.5,0.7-0.7,1.7-0.8,2.8c-0.2,1.4-0.4,2.5-1,2.5c-0.2,0-0.7-0.1-1.5-0.7c-0.2-0.2-0.5-0.2-0.8-0.1  c-0.2,0.1-0.4,0.3-0.4,0.6c-0.1,1.1,0.5,2.4,1.3,3.7c0.7,1.2,1.4,2.5,1.1,3.3c-0.1,0.1-0.1,0.3-0.2,0.5c-0.4,1.2-1.1,2.9-1.2,4.6  c-2.9,0.4-9.4,1.6-9.4,4.6l0,4.9c0,0,0,0,0,0l0,44.1c0,3.3,7.6,5,15.1,5c2.1,0,4.1-0.1,6-0.4V90c0,3.3,7.6,5,15.1,5s15.1-1.7,15.1-5  V65.6v-5.2C75.7,57.5,70,56.2,67,55.8z M74.1,62.7v2.5c-0.7,0.5-1.5,1-2.3,1.5c-2.1,1.2-4.5,2.6-4.9,5.3c-0.3,2.2,0.1,4.8,0.6,7  c0.4,2,0.8,3.8,1.6,6c0.2,0.8,0.2,1.4-0.1,1.8c-0.3,0.5-1,0.8-1.7,0.8c-0.6,0-1.1-0.2-1.4-0.5c-0.3-0.3-0.4-0.8-0.4-1.4  c0.1-0.7,0.2-1.4,0.3-2c0.2-1.5,0.5-3.1,0.3-4.8c-0.2-1.9-0.5-3.7-0.8-5.5L65.1,72c-0.7-4.3-5.3-4.6-9-4.8c-1.2-0.1-2.3-0.2-3.1-0.3  c-2.1-0.5-3.7-1.3-4.8-2.4c-0.2-0.3-0.4-0.5-0.5-0.6c-0.2-0.2-0.3-0.4-0.6-0.6v-0.5c0,0,0,0,0,0c0.1,0.1,0.3,0.2,0.5,0.3  c0,0,0.1,0,0.1,0.1c0.1,0.1,0.3,0.1,0.4,0.2c0,0,0.1,0,0.1,0.1c0.2,0.1,0.4,0.2,0.6,0.2c0,0,0.1,0,0.1,0c0.2,0.1,0.4,0.1,0.5,0.2  c0.1,0,0.1,0,0.2,0.1c0.2,0.1,0.4,0.1,0.7,0.2c0,0,0,0,0,0c0.2,0.1,0.5,0.1,0.7,0.2c0.1,0,0.1,0,0.2,0c0.2,0.1,0.4,0.1,0.7,0.2  c0,0,0.1,0,0.1,0c0.3,0.1,0.5,0.1,0.8,0.2c0.1,0,0.1,0,0.2,0c0.2,0,0.4,0.1,0.7,0.1c0.1,0,0.1,0,0.2,0c0.3,0,0.5,0.1,0.8,0.1  c0.1,0,0.1,0,0.2,0c0.2,0,0.5,0.1,0.7,0.1c0.1,0,0.1,0,0.2,0c0.3,0,0.6,0.1,0.9,0.1c0.1,0,0.1,0,0.2,0c0.2,0,0.5,0,0.7,0.1  c0.1,0,0.2,0,0.2,0c0.3,0,0.6,0,0.9,0c0,0,0.1,0,0.1,0c0.3,0,0.5,0,0.8,0c0.1,0,0.2,0,0.2,0c0.3,0,0.6,0,0.9,0c0.3,0,0.6,0,0.9,0  c0.1,0,0.2,0,0.2,0c0.3,0,0.5,0,0.8,0c0,0,0.1,0,0.1,0c0.3,0,0.6,0,0.9,0c0.1,0,0.2,0,0.2,0c0.2,0,0.5,0,0.7-0.1c0.1,0,0.1,0,0.2,0  c0.3,0,0.6-0.1,0.9-0.1c0.1,0,0.1,0,0.2,0c0.2,0,0.5-0.1,0.7-0.1c0.1,0,0.1,0,0.2,0c0.3,0,0.6-0.1,0.8-0.1c0.1,0,0.1,0,0.2,0  c0.2,0,0.5-0.1,0.7-0.1c0.1,0,0.1,0,0.2,0c0.3,0,0.5-0.1,0.8-0.2c0,0,0.1,0,0.1,0c0.2-0.1,0.4-0.1,0.7-0.2c0.1,0,0.1,0,0.2,0  c0.2-0.1,0.5-0.1,0.7-0.2c0,0,0,0,0,0c0.2-0.1,0.4-0.1,0.7-0.2c0.1,0,0.1,0,0.2-0.1c0.2-0.1,0.4-0.1,0.5-0.2c0,0,0.1,0,0.1,0  c0.2-0.1,0.4-0.2,0.6-0.2c0,0,0.1,0,0.1-0.1c0.1-0.1,0.3-0.1,0.4-0.2c0,0,0.1,0,0.1-0.1C73.8,62.9,74,62.8,74.1,62.7  C74.1,62.7,74.1,62.7,74.1,62.7z M74.1,60.4c0,1.4-5.3,3.4-13.6,3.4S47,61.8,47,60.4c0,0,0-0.1,0-0.2c0.2-0.7,1.9-1.9,6-2.6  c0,0,0.1,0,0.1,0c0.2,0,0.5-0.1,0.7-0.1c0.5-0.1,1.1-0.2,1.7-0.2c0.2,0.2,0.4,0.4,0.6,0.6c0,0,0,0,0,0c1,0.9,2.2,1.7,3.6,2  c-0.3,0.5-0.5,1-0.7,1.2c-0.3,0.3-0.2,0.8,0.2,1.1c0.1,0.1,0.3,0.2,0.5,0.2c0.2,0,0.5-0.1,0.6-0.3c0.1-0.1,0.7-0.9,1.1-2  c1.4-0.1,3.1-0.7,4.7-2.7C71.6,57.9,74.1,59.5,74.1,60.4z M40.6,46.3c-0.2-2.2-3-4.3-4.9-4.3c-1.3,0-2.1,0.8-2.2,2.2  c-0.3,3.4-1,4.8-1.3,5.1c-0.3-0.3-0.8-1.5-1-4.5c-0.2-3.1-0.7-3.6-2.5-4.8c-0.3-0.2-0.6-0.4-1-0.7c-0.7-0.5-1.3-1-1.8-1.5l0-2.2  c0,0,0,0,0,0c0.1,0.1,0.3,0.2,0.5,0.3c0,0,0.1,0,0.1,0.1c0.1,0.1,0.3,0.1,0.4,0.2c0,0,0.1,0,0.1,0.1c0.2,0.1,0.4,0.2,0.6,0.2  c0,0,0.1,0,0.1,0c0.2,0.1,0.4,0.1,0.5,0.2c0.1,0,0.1,0,0.2,0.1c0.2,0.1,0.4,0.1,0.7,0.2c0,0,0,0,0,0c0.2,0.1,0.5,0.1,0.7,0.2  c0.1,0,0.1,0,0.2,0c0.2,0.1,0.4,0.1,0.7,0.2c0,0,0,0,0.1,0c0.3,0.1,0.5,0.1,0.8,0.2c0.1,0,0.1,0,0.2,0c0.2,0,0.5,0.1,0.7,0.1  c0,0,0.1,0,0.1,0c0.3,0,0.6,0.1,0.8,0.1c0.1,0,0.1,0,0.2,0c0.2,0,0.5,0.1,0.7,0.1c0.1,0,0.1,0,0.2,0c0.3,0,0.6,0.1,0.9,0.1  c0.1,0,0.1,0,0.2,0c0.2,0,0.5,0,0.7,0.1c0.1,0,0.1,0,0.2,0c0.3,0,0.6,0,0.9,0c0,0,0.1,0,0.1,0c0.3,0,0.5,0,0.8,0c0,0,0.1,0,0.1,0  c0,0,0.1,0,0.1,0c0.3,0,0.6,0,0.9,0c0.3,0,0.6,0,0.9,0c0.1,0,0.2,0,0.2,0c0.3,0,0.5,0,0.8,0c0,0,0.1,0,0.1,0c0,0,0,0,0,0  c0.3,0,0.6,0,0.9,0c0.1,0,0.2,0,0.2,0c0.2,0,0.5,0,0.7-0.1c0.1,0,0.1,0,0.2,0c0.3,0,0.6-0.1,0.9-0.1c0.1,0,0.1,0,0.2,0  c0.2,0,0.5-0.1,0.7-0.1c0.1,0,0.1,0,0.2,0c0.3,0,0.6-0.1,0.8-0.1c0.1,0,0.1,0,0.2,0c0.2,0,0.5-0.1,0.7-0.1c0.1,0,0.1,0,0.2,0  c0.3,0,0.5-0.1,0.8-0.2c0,0,0.1,0,0.1,0c0.2-0.1,0.4-0.1,0.7-0.2c0.1,0,0.1,0,0.2,0c0.2-0.1,0.5-0.1,0.7-0.2c0,0,0,0,0,0  c0.2-0.1,0.5-0.1,0.7-0.2c0.1,0,0.1,0,0.2-0.1c0.2-0.1,0.4-0.1,0.5-0.2c0,0,0,0,0.1,0c0,0,0,0,0,0c0.2-0.1,0.4-0.2,0.6-0.2  c0,0,0.1,0,0.1-0.1c0.1-0.1,0.3-0.1,0.4-0.2c0,0,0.1,0,0.1-0.1c0.2-0.1,0.3-0.2,0.5-0.3c0,0,0,0,0,0l0,8.1c-0.2-0.1-0.4-0.3-0.7-0.7  c-0.4-0.5-1-1.2-1.8-1.6c-0.7-0.3-1.3-0.4-1.8-0.4c-3.7,0-4,5.6-4.2,10.1c-0.1,2-0.2,4.2-0.7,4.7c-0.6,0.8-1.4,1.3-2.1,1.3  c-0.9,0-1.7-0.7-2.2-2c-0.6-1.5-0.1-3,0.4-4.6C40.3,49.1,40.8,47.8,40.6,46.3z M55.3,52.3c0.3-0.5,1-0.6,1.6-0.6c0.2,0,0.5,0,0.7,0  c0.1,0,0.2,0,0.3,0h0c0.8,0,1.5-0.4,2-1.1c1-1.5,0.8-4.2,0.3-5.4c-0.8-1.8-0.4-2.2,0.5-3.4c0.4-0.5,0.9-1.1,1.3-1.8  c0.6,2.2,0.8,4.9,0.9,7.3c0.3,4.1,0.5,7.4,2.6,7.6c-0.3,0.5-0.5,0.8-0.8,1.2c-0.1,0.1-0.2,0.2-0.2,0.3c-0.1,0.2-0.3,0.3-0.4,0.5  c-0.1,0.1-0.1,0.1-0.2,0.2c-0.1,0.1-0.2,0.2-0.3,0.3c-0.1,0.1-0.1,0.1-0.2,0.1c-0.1,0.1-0.2,0.2-0.3,0.2c-0.1,0-0.1,0.1-0.2,0.1  c-0.1,0.1-0.2,0.1-0.3,0.1c-0.1,0-0.2,0.1-0.2,0.1c-0.1,0-0.2,0.1-0.3,0.1c0,0-0.1,0-0.1,0c0.1-0.8,0-1.6-0.5-2.3  c-0.6-0.9-0.6-1.1-0.6-1.1c0,0,0.1-0.1,0.2-0.2c0.5-0.5,1.3-1.2,1.4-3.3c0-0.4-0.3-0.8-0.7-0.8c-0.4,0-0.8,0.3-0.8,0.7  c-0.1,1.5-0.5,1.9-0.9,2.3C59,54.5,59,55.3,60,56.9c0.3,0.4,0.3,0.9,0.2,1.5c-1.5-0.3-2.9-1.4-3.8-2.5c0,0,0,0,0,0  c-0.3-0.3-0.5-0.6-0.7-1C55.2,53.9,55,52.8,55.3,52.3z M34.6,18c0.3,0.1,0.6,0.1,0.8,0.1c1.9,0,2.3-2.2,2.5-3.8  c0.1-0.8,0.3-1.7,0.5-2.1c0.6-0.7,1.1-1.2,1.5-1.6c0.6-0.6,1.1-1.1,1.3-1.8c0.5,1.5,0.1,2.4-0.4,3.5c-0.5,1.3-1.2,2.9-0.7,5.7  c0.2,0.9,0.9,2,1.8,3.4c1.5,2.3,3.4,5.3,2.6,7.2c0,0.1-0.1,0.2-0.2,0.3c0,0.1-0.1,0.1-0.1,0.2c0,0-0.1,0.1-0.1,0.1  c-0.1,0.1-0.1,0.1-0.2,0.2c0,0-0.1,0.1-0.1,0.1c-0.1,0.1-0.1,0.1-0.2,0.2c-0.1,0-0.1,0.1-0.2,0.1c-0.1,0-0.1,0.1-0.2,0.1  c-0.1,0-0.2,0.1-0.2,0.1c-0.1,0-0.1,0.1-0.2,0.1c-0.1,0-0.2,0.1-0.3,0.1c-0.1,0-0.2,0.1-0.2,0.1c-0.1,0-0.2,0.1-0.4,0.1  c-0.1,0-0.1,0.1-0.2,0.1c0,0,0,0-0.1,0c0.1-0.7,0.2-1.4,0-2.1c-0.2-1.1-0.6-1.8-0.9-2.4c-0.5-1-1-1.9-0.9-4.5c0-0.4-0.3-0.8-0.8-0.8  c-0.4,0-0.8,0.3-0.8,0.8c-0.1,3,0.5,4.2,1.1,5.3c0.3,0.6,0.6,1.1,0.8,2c0.2,0.8,0,1.5-0.3,2.2c-0.3,0.1-0.6,0.1-0.9,0.1  c-0.4,0-0.8,0.1-1.1,0.1c-1.1,0-1.9-0.3-2.3-0.9c-0.2-0.3-0.3-0.6-0.3-0.9c0-0.2,0-0.3,0-0.5c0,0,0,0,0,0c0-1.6,0.7-3.6,1.2-4.7  c0.1-0.2,0.1-0.4,0.2-0.5c0.5-1.4-0.4-3-1.2-4.6C35.1,18.9,34.8,18.5,34.6,18z M33.7,30.1C33.7,30.1,33.7,30.1,33.7,30.1  c0,0.2,0.1,0.4,0.2,0.6c0,0,0,0.1,0,0.1c0.1,0.1,0.1,0.3,0.2,0.4c0,0.1,0.1,0.1,0.1,0.2c0,0,0,0.1,0.1,0.1c0.1,0.1,0.2,0.2,0.3,0.3  c0,0,0,0,0,0c0.1,0.1,0.3,0.3,0.4,0.4c0,0,0.1,0,0.1,0.1c0.2,0.1,0.3,0.2,0.5,0.3c0,0,0,0,0,0c0.2,0.1,0.4,0.2,0.6,0.2  c0,0,0,0,0.1,0c0.2,0.1,0.4,0.1,0.6,0.1c0.1,0,0.1,0,0.2,0c0.2,0,0.5,0,0.8,0c0,0,0,0,0,0c0.3,0,0.6,0,1-0.1  c-0.2,0.3-0.4,0.5-0.4,0.5c-0.3,0.3-0.3,0.8,0,1.1c0.2,0.1,0.3,0.2,0.5,0.2c0.2,0,0.4-0.1,0.6-0.2c0.1-0.1,0.8-0.8,1.4-2  c0.2,0,0.3-0.1,0.5-0.1c0.3-0.1,0.6-0.2,0.8-0.2c0.1,0,0.1,0,0.2-0.1c0.2-0.1,0.4-0.2,0.6-0.3c0,0,0.1,0,0.1,0  c0.7-0.3,1.3-0.7,1.8-1.1c0,0,0.1,0,0.1-0.1c0.1-0.1,0.2-0.2,0.3-0.3c0-0.1,0.1-0.1,0.1-0.2c0,0,0-0.1,0.1-0.1  c5.2,0.7,7.5,2.2,7.5,3c0,1.4-5.3,3.4-13.6,3.4c-8.3,0-13.6-2-13.6-3.4C25.9,32.3,28.3,30.8,33.7,30.1z M39.4,85.6  c-8.3,0-13.6-2-13.6-3.4l0-42.4c0.3,0.2,0.6,0.5,0.9,0.7c0.4,0.3,0.8,0.6,1.1,0.8c1.5,1.1,1.7,1.2,1.8,3.6c0.1,2.3,0.6,6.1,2.5,6.1  c1.5,0,2.4-2.2,2.8-6.6c0.1-0.8,0.5-0.8,0.7-0.8c1.2,0,3.3,1.6,3.4,2.9c0.1,1.1-0.3,2.3-0.7,3.5c-0.6,1.7-1.2,3.6-0.4,5.7  c0.7,1.8,2.1,2.9,3.6,2.9c1.2,0,2.4-0.7,3.3-1.9c0.7-0.9,0.8-2.7,1-5.6c0.2-3.7,0.5-8.7,2.7-8.7c0.3,0,0.7,0.1,1.2,0.3  c0.6,0.3,0.9,0.7,1.3,1.1c0.4,0.5,1,1.2,1.9,1.3L53,56c-0.4,0.1-0.9,0.2-1.4,0.3c-0.1,0-0.2,0-0.3,0.1c0,0,0,0,0,0  c-2.6,0.6-5.4,1.7-5.8,3.5c0,0,0,0,0,0.1c0,0.1-0.1,0.3-0.1,0.4v3.3v21.6C43.6,85.5,41.5,85.6,39.4,85.6z M60.6,93.4  c-8.3,0-13.6-2-13.6-3.4v-4.1V65.6c1.3,1.3,3.1,2.3,5.6,2.8c1,0.2,2.1,0.3,3.4,0.4c4.2,0.3,7.1,0.7,7.6,3.5l0.2,1.2  c0.3,1.8,0.6,3.6,0.8,5.4c0.2,1.6,0,2.9-0.3,4.4c-0.1,0.7-0.2,1.4-0.3,2.1c-0.1,1.3,0.3,2.2,0.8,2.6c0.6,0.7,1.5,1.1,2.5,1.1  c1.2,0,2.3-0.5,2.9-1.4c0.4-0.6,0.9-1.7,0.3-3.2c-0.7-2.2-1.2-3.9-1.5-5.8c-0.3-1.5-0.8-4.4-0.6-6.5c0.3-1.9,2.1-3,4.1-4.2  c0.5-0.3,1-0.6,1.5-0.9V90C74.1,91.4,68.8,93.4,60.6,93.4z"></path></svg></g><path fill="#fe0b01" fill-rule="nonzero" d="M14.52 16.08Q13.39 16.08 12.17 15.47Q10.94 14.86 9.36 13.20L9.36 13.20L4.32 7.92L4.32 15.84L2.16 15.84L2.16 2.88Q2.16 1.66 1.82 1.07Q1.49 0.48 0.48 0.48L0.48 0.48L0 0.48L0 0L2.16 0Q3.05 0 3.49 0.23Q3.94 0.46 4.13 1.06Q4.32 1.66 4.32 2.88L4.32 2.88L4.32 7.56L9.36 2.52L9.84 2.02Q10.51 1.32 10.97 0.92Q11.42 0.53 12.05 0.26Q12.67 0 13.44 0L13.44 0L14.64 0L14.64 0.60Q13.63 0.60 12.89 0.95Q12.14 1.30 11.16 2.28L11.16 2.28L6.48 6.96L12 12.72Q13.06 13.80 14.14 14.53Q15.22 15.26 16.08 15.38L16.08 15.38L16.08 15.84Q15.36 16.08 14.52 16.08L14.52 16.08ZM20.28 16.08Q19.51 16.08 18.72 15.76Q17.93 15.43 17.36 14.69Q16.80 13.94 16.80 12.72L16.80 12.72Q16.80 10.90 18.49 10.13Q20.18 9.36 22.92 9.36L22.92 9.36L23.64 9.36Q23.64 7.01 22.99 6.14Q22.34 5.28 21.12 5.28L21.12 5.28Q20.04 5.28 19.39 5.74Q18.74 6.19 18.48 7.32L18.48 7.32L17.40 7.32Q17.40 6.50 17.50 6.04Q17.59 5.57 18 5.16L18 5.16Q18.43 4.73 19.43 4.52Q20.42 4.32 21.60 4.32L21.60 4.32Q23.54 4.32 24.67 5.36Q25.80 6.41 25.80 9.36L25.80 9.36L25.80 15.84L24.60 15.84L23.76 14.76L23.64 14.76Q23.21 15.31 22.37 15.70Q21.53 16.08 20.28 16.08L20.28 16.08ZM21.36 15Q22.15 15 22.68 14.62Q23.21 14.23 23.64 13.56L23.64 13.56L23.64 10.32L22.92 10.32Q21.14 10.32 20.11 10.98Q19.08 11.64 19.08 12.72L19.08 12.72Q19.08 13.82 19.74 14.41Q20.40 15 21.36 15L21.36 15ZM29.50 15.84L29.50 7.44Q29.50 6.22 29.16 5.63Q28.82 5.04 27.82 5.04L27.82 5.04L27.34 5.04L27.34 4.56L29.50 4.56Q30.38 4.56 30.85 4.80Q31.32 5.04 31.54 5.52L31.54 5.52L31.66 5.52Q32.16 5.02 32.96 4.67Q33.77 4.32 34.78 4.32L34.78 4.32Q36.58 4.32 37.72 5.28Q38.86 6.24 38.86 8.64L38.86 8.64L38.86 15.84L36.70 15.84L36.70 8.64Q36.70 6.96 35.94 6.18Q35.18 5.40 34.06 5.40L34.06 5.40Q32.78 5.40 31.66 6.67L31.66 6.67L31.66 15.84L29.50 15.84ZM45.91 16.08Q43.82 16.08 42.71 14.42Q41.59 12.77 41.59 10.20L41.59 10.20Q41.59 7.63 42.76 5.98Q43.92 4.32 46.15 4.32L46.15 4.32Q47.06 4.32 47.76 4.51Q48.46 4.70 49.15 5.04L49.15 5.04L49.15 2.88Q49.15 1.66 48.82 1.07Q48.48 0.48 47.47 0.48L47.47 0.48L46.99 0.48L46.99 0L49.15 0Q50.04 0 50.48 0.23Q50.93 0.46 51.12 1.06Q51.31 1.66 51.31 2.88L51.31 2.88L51.31 15.84L50.11 15.84L49.27 14.76L49.15 14.76Q48.62 15.36 47.92 15.72Q47.21 16.08 45.91 16.08L45.91 16.08ZM46.63 15.12Q47.62 15.12 48.12 14.76Q48.62 14.40 49.15 13.68L49.15 13.68L49.15 6Q48.43 5.66 47.90 5.47Q47.38 5.28 46.87 5.28L46.87 5.28Q45.34 5.28 44.60 6.62Q43.87 7.97 43.87 10.20L43.87 10.20Q43.87 12.41 44.57 13.76Q45.26 15.12 46.63 15.12L46.63 15.12ZM58.87 16.08Q57.07 16.08 55.93 15.12Q54.79 14.16 54.79 11.76L54.79 11.76L54.79 7.44Q54.79 6.22 54.46 5.63Q54.12 5.04 53.11 5.04L53.11 5.04L52.87 5.04L52.87 4.56L54.79 4.56Q55.68 4.56 56.12 4.79Q56.57 5.02 56.76 5.62Q56.95 6.22 56.95 7.44L56.95 7.44L56.95 11.76Q56.95 13.44 57.71 14.22Q58.46 15 59.59 15L59.59 15Q60.86 15 61.99 13.73L61.99 13.73L61.99 4.56L64.15 4.56L64.15 15.84L62.95 15.84L62.11 14.88L61.99 14.88Q61.49 15.38 60.68 15.73Q59.88 16.08 58.87 16.08L58.87 16.08ZM67.70 15.84L67.70 2.88Q67.70 1.66 67.37 1.07Q67.03 0.48 66.02 0.48L66.02 0.48L65.54 0.48L65.54 0L67.70 0Q68.59 0 69.04 0.23Q69.48 0.46 69.67 1.06Q69.86 1.66 69.86 2.88L69.86 2.88L69.86 15.84L67.70 15.84ZM77.52 16.08Q75.72 16.08 74.58 15.12Q73.44 14.16 73.44 11.76L73.44 11.76L73.44 7.44Q73.44 6.22 73.10 5.63Q72.77 5.04 71.76 5.04L71.76 5.04L71.52 5.04L71.52 4.56L73.44 4.56Q74.33 4.56 74.77 4.79Q75.22 5.02 75.41 5.62Q75.60 6.22 75.60 7.44L75.60 7.44L75.60 11.76Q75.60 13.44 76.36 14.22Q77.11 15 78.24 15L78.24 15Q79.51 15 80.64 13.73L80.64 13.73L80.64 4.56L82.80 4.56L82.80 15.84L81.60 15.84L80.76 14.88L80.64 14.88Q80.14 15.38 79.33 15.73Q78.53 16.08 77.52 16.08L77.52 16.08Z" transform="translate(36, 9.96)"></path></svg>